<svg width="994" height="388" viewBox="0 0 994 388" fill="none" xmlns="http://www.w3.org/2000/svg">
<g clip-path="url(#clip0)">
<path d="M255.801 84.6918V269.131H208V89.5201L255.801 84.6918ZM338.609 140.217L304.568 196.707L340.54 269.131H287.669L256.767 198.638L291.29 140.217H338.609Z" fill="#14192B"/>
<path d="M479.64 140.217L441.254 269.131H384.761L345.41 140.217H397.315L413.49 234.609L431.356 140.217H479.64Z" fill="#14192B"/>
<path d="M546.119 140.217V269.131H498.318V140.217H546.119ZM522.218 69C529.944 69 536.301 71.4946 541.291 76.4838C546.441 81.312 549.016 87.3473 549.016 94.5897C549.016 101.832 546.441 107.948 541.291 112.937C536.301 117.765 529.944 120.179 522.218 120.179C514.493 120.179 508.055 117.765 502.905 112.937C497.915 107.948 495.421 101.832 495.421 94.5897C495.421 87.3473 497.915 81.312 502.905 76.4838C508.055 71.4946 514.493 69 522.218 69Z" fill="#14192B"/>
<path d="M668.815 262.854C663.826 266.395 657.71 269.131 650.467 271.062C643.386 272.993 636.626 273.959 630.188 273.959C614.254 273.798 602.425 269.372 594.699 260.681C587.135 251.83 583.352 238.793 583.352 221.573V172.566H567.902V140.217H583.352V113.178L631.154 107.626V140.217H660.124L655.296 172.566H631.154V221.09C631.154 226.723 632.039 230.746 633.809 233.16C635.58 235.414 638.074 236.54 641.293 236.54C645.317 236.54 649.341 235.414 653.364 233.16L668.815 262.854Z" fill="#14192B"/>
<path d="M724.487 273.959C711.451 273.959 701.391 270.338 694.31 263.096C687.389 255.692 683.929 245.311 683.929 231.953V89.5201L731.73 84.6918V230.022C731.73 234.367 733.661 236.54 737.524 236.54C739.294 236.54 740.984 236.218 742.594 235.575L751.044 269.614C743.479 272.511 734.627 273.959 724.487 273.959Z" fill="#14192B"/>
<path d="M850.035 268.889C844.563 286.754 835.228 300.273 822.031 309.447C808.833 318.62 791.451 323.529 769.884 324.173L764.814 291.582C777.207 290.295 786.381 288.041 792.336 284.823C798.452 281.604 803.2 276.373 806.58 269.131H790.163L753.467 140.217H804.166L820.341 239.92L840.379 140.217H889.629L850.035 268.889Z" fill="#14192B"/>
<path d="M116.661 139.45C149.941 200.476 127.757 280 127.757 280C127.757 280 51.6179 260.578 18.339 199.55C-14.9404 138.522 7.24233 59 7.24233 59C7.24233 59 83.3809 78.422 116.661 139.45Z" fill="#4ADF79"/>
<path d="M116.661 139.45C149.941 200.476 127.757 280 127.757 280C127.757 280 90.2789 230.528 57 169.5C23.7206 108.472 7.24234 59 7.24234 59C7.24234 59 83.3809 78.422 116.661 139.45Z" fill="#09C269"/>
</g>
<defs>
<clipPath id="clip0">
<rect width="994" height="388" fill="white"/>
</clipPath>
</defs>
</svg>
